<svg version="1.1" viewBox="0.0 0.0 912.7270341207349 372.8556430446194" fill="none" stroke="none" stroke-linecap="square" stroke-miterlimit="10" xmlns:xlink="http://www.w3.org/1999/xlink" xmlns="http://www.w3.org/2000/svg"><clipPath id="p.0"><path d="m0 0l912.72705 0l0 372.85565l-912.72705 0l0 -372.85565z" clip-rule="nonzero"/></clipPath><g clip-path="url(#p.0)"><path fill="#000000" fill-opacity="0.0" d="m0 0l912.72705 0l0 372.85565l-912.72705 0z" fill-rule="evenodd"/><path fill="#f4fcff" d="m33.50299 3.364959c-6.694153 0 -12.412075 4.028846 -17.153767 12.086536c-4.7416906 8.057691 -7.1125364 17.774319 -7.1125364 29.14988c0 11.849545 2.3863382 21.934834 7.1590242 30.25584c4.803669 8.268356 10.599068 12.402527 17.386202 12.402527c6.601177 0 12.27261 -4.055176 17.014301 -12.165535c4.7416916 -8.163017 7.1125374 -18.0113 7.1125374 -29.544868c0 -11.691551 -2.4018364 -21.645168 -7.205513 -29.860853c-4.7726784 -8.215685 -10.5061 -12.323527 -17.200249 -12.323527zm-19.106228 106.17193l0 257.8461l38.212452 0l0 -257.8461z" fill-rule="evenodd"/><path fill="#f4fcff" d="m170.0358 102.90114c-7.3449707 0 -14.534988 2.4225845 -21.570053 7.267723c-7.004059 4.792488 -14.829407 13.350487 -23.476013 25.674019l0 -26.305992l-37.933525 0l0 257.8461l37.933525 0l0 -103.56503c0 -26.858963 0.55784607 -44.31729 1.6735382 -52.374985c2.1384125 -15.483414 5.965851 -27.596268 11.48233 -36.338608c5.54747 -8.794998 12.179642 -13.19249 19.896515 -13.19249c5.950348 0 10.939972 2.6595612 14.968857 7.9786835c4.0598907 5.2664795 6.8955994 12.955505 8.507156 23.067123c1.6425476 10.111603 2.4638214 30.571823 2.4638214 61.380646l0 113.04466l37.654602 0l0 -170.39647c0 -29.70285 -4.416275 -52.138 -13.24884 -67.30542c-10.5061035 -17.85331 -23.29007 -26.779968 -38.351913 -26.779968z" fill-rule="evenodd"/><path fill="#009b87" d="m281.29196 18.486094l-35.05246 342.22003l37.6745 0l22.218262 -216.12672l42.642548 216.12672l34.086456 0l43.19455 -216.12672l21.80426 216.12672l37.260498 0l-34.224457 -342.22003l-37.260468 0l-47.610596 238.69322l-46.920624 -238.69322z" fill-rule="evenodd"/><path fill="#009b87" d="m526.6591 3.3642032c-6.6240845 0 -12.282166 3.9549563 -16.974243 11.864868c-4.692047 7.909911 -7.038086 17.448334 -7.038086 28.615269c0 11.632225 2.3613586 21.532543 7.0841064 29.700947c4.753357 8.116707 10.488098 12.175056 17.204224 12.175056c6.5320435 0 12.144165 -3.9807968 16.836182 -11.942413c4.6920776 -8.013306 7.038086 -17.680973 7.038086 -29.003014c0 -11.477127 -2.376648 -21.248194 -7.130066 -29.313202c-4.7227173 -8.065008 -10.396118 -12.097512 -17.020203 -12.097512zm-18.90625 104.224724l0 253.11719l37.8125 0l0 -253.11719z" fill-rule="evenodd"/><path fill="#009b87" d="m661.7628 101.07488c-7.2680664 0 -14.3828125 2.378151 -21.344238 7.13443c-6.930786 4.70459 -14.674194 13.105637 -23.230347 25.203148l0 -25.823532l-37.536438 0l0 253.11719l37.536438 0l0 -101.66565c0 -26.366364 0.55200195 -43.5045 1.6560669 -51.414413c2.1160278 -15.199448 5.9033813 -27.090149 11.362122 -35.67215c5.48938 -8.6336975 12.052185 -12.950546 19.688232 -12.950546c5.8881226 0 10.8255005 2.610794 14.812195 7.832367c4.017395 5.169876 6.8234253 12.7178955 8.418152 22.644058c1.6253052 9.926163 2.4379883 30.011139 2.4379883 60.254913l0 110.97142l37.260498 0l0 -167.27138c0 -29.158112 -4.370056 -51.181793 -13.110168 -66.07103c-10.396118 -17.525887 -23.046326 -26.288826 -37.9505 -26.288826z" fill-rule="evenodd"/><path fill="#009b87" d="m820.60284 159.7013c11.960144 0 21.85028 6.824234 29.67041 20.472702c7.8200684 13.648483 11.730164 31.484558 11.730164 53.50824c0 22.488968 -3.9100952 40.686905 -11.730164 54.593887c-7.8201294 13.855255 -17.664246 20.782928 -29.53241 20.782928c-11.500122 0 -21.190918 -7.056885 -29.072327 -21.170654c-7.850769 -14.11377 -11.776184 -32.10495 -11.776184 -53.973526c0 -21.713486 3.8640747 -39.49785 11.592163 -53.353134c7.7280884 -13.906952 17.434204 -20.860443 29.118347 -20.860443zm39.606506 -149.82304l0 125.628006c-6.7160645 -11.477119 -14.030151 -20.084969 -21.94226 -25.823532c-7.9121094 -5.7385635 -16.37622 -8.6078415 -25.392334 -8.6078415c-19.596252 0 -36.248474 12.485252 -49.956604 37.455757c-13.708191 24.970505 -20.562317 56.997894 -20.562317 96.08217c0 37.6884 7.0841064 69.224655 21.25232 94.60875c14.168152 25.332397 30.958374 37.998596 50.370605 37.998596c8.648132 0 16.667542 -2.584961 24.05835 -7.754822c7.4213867 -5.221588 14.812195 -13.726013 22.172241 -25.513336l0 26.75412l37.5365 0l0 -350.82788z" fill-rule="evenodd"/><path stroke="#009b87" stroke-width="1.0" stroke-linejoin="round" stroke-linecap="butt" d="m281.29196 18.486094l-35.05246 342.22003l37.6745 0l22.218262 -216.12672l42.642548 216.12672l34.086456 0l43.19455 -216.12672l21.80426 216.12672l37.260498 0l-34.224457 -342.22003l-37.260468 0l-47.610596 238.69322l-46.920624 -238.69322z" fill-rule="evenodd"/><path stroke="#009b87" stroke-width="1.0" stroke-linejoin="round" stroke-linecap="butt" d="m526.6591 3.3642032c-6.6240845 0 -12.282166 3.9549563 -16.974243 11.864868c-4.692047 7.909911 -7.038086 17.448334 -7.038086 28.615269c0 11.632225 2.3613586 21.532543 7.0841064 29.700947c4.753357 8.116707 10.488098 12.175056 17.204224 12.175056c6.5320435 0 12.144165 -3.9807968 16.836182 -11.942413c4.6920776 -8.013306 7.038086 -17.680973 7.038086 -29.003014c0 -11.477127 -2.376648 -21.248194 -7.130066 -29.313202c-4.7227173 -8.065008 -10.396118 -12.097512 -17.020203 -12.097512zm-18.90625 104.224724l0 253.11719l37.8125 0l0 -253.11719z" fill-rule="evenodd"/><path stroke="#009b87" stroke-width="1.0" stroke-linejoin="round" stroke-linecap="butt" d="m661.7628 101.07488c-7.2680664 0 -14.3828125 2.378151 -21.344238 7.13443c-6.930786 4.70459 -14.674194 13.105637 -23.230347 25.203148l0 -25.823532l-37.536438 0l0 253.11719l37.536438 0l0 -101.66565c0 -26.366364 0.55200195 -43.5045 1.6560669 -51.414413c2.1160278 -15.199448 5.9033813 -27.090149 11.362122 -35.67215c5.48938 -8.6336975 12.052185 -12.950546 19.688232 -12.950546c5.8881226 0 10.8255005 2.610794 14.812195 7.832367c4.017395 5.169876 6.8234253 12.7178955 8.418152 22.644058c1.6253052 9.926163 2.4379883 30.011139 2.4379883 60.254913l0 110.97142l37.260498 0l0 -167.27138c0 -29.158112 -4.370056 -51.181793 -13.110168 -66.07103c-10.396118 -17.525887 -23.046326 -26.288826 -37.9505 -26.288826z" fill-rule="evenodd"/><path stroke="#009b87" stroke-width="1.0" stroke-linejoin="round" stroke-linecap="butt" d="m820.60284 159.7013c11.960144 0 21.85028 6.824234 29.67041 20.472702c7.8200684 13.648483 11.730164 31.484558 11.730164 53.50824c0 22.488968 -3.9100952 40.686905 -11.730164 54.593887c-7.8201294 13.855255 -17.664246 20.782928 -29.53241 20.782928c-11.500122 0 -21.190918 -7.056885 -29.072327 -21.170654c-7.850769 -14.11377 -11.776184 -32.10495 -11.776184 -53.973526c0 -21.713486 3.8640747 -39.49785 11.592163 -53.353134c7.7280884 -13.906952 17.434204 -20.860443 29.118347 -20.860443zm39.606506 -149.82304l0 125.628006c-6.7160645 -11.477119 -14.030151 -20.084969 -21.94226 -25.823532c-7.9121094 -5.7385635 -16.37622 -8.6078415 -25.392334 -8.6078415c-19.596252 0 -36.248474 12.485252 -49.956604 37.455757c-13.708191 24.970505 -20.562317 56.997894 -20.562317 96.08217c0 37.6884 7.0841064 69.224655 21.25232 94.60875c14.168152 25.332397 30.958374 37.998596 50.370605 37.998596c8.648132 0 16.667542 -2.584961 24.05835 -7.754822c7.4213867 -5.221588 14.812195 -13.726013 22.172241 -25.513336l0 26.75412l37.5365 0l0 -350.82788z" fill-rule="evenodd"/></g></svg>