<svg version="1.1" viewBox="0.0 0.0 963.7926509186352 474.45669291338584" fill="none" stroke="none" stroke-linecap="square" stroke-miterlimit="10" xmlns:xlink="http://www.w3.org/1999/xlink" xmlns="http://www.w3.org/2000/svg"><clipPath id="p.0"><path d="m0 0l963.79266 0l0 474.4567l-963.79266 0l0 -474.4567z" clip-rule="nonzero"/></clipPath><g clip-path="url(#p.0)"><path fill="#000000" fill-opacity="0.0" d="m0 0l963.79266 0l0 474.4567l-963.79266 0z" fill-rule="evenodd"/><path fill="#24506b" d="m51.76715 49.612362c-6.9373016 0 -12.862915 4.355442 -17.77684 13.066322c-4.9139214 8.71088 -7.370884 19.215176 -7.370884 31.512882c0 12.81012 2.4730167 23.71296 7.4190598 32.708504c4.978153 8.938614 10.984058 13.407913 18.01772 13.407913c6.840954 0 12.718391 -4.383896 17.632317 -13.1517105c4.9139175 -8.824745 7.37088 -19.471367 7.37088 -31.939896c0 -12.639313 -2.4890747 -23.39981 -7.4672318 -32.281494c-4.946045 -8.88168 -10.887714 -13.322521 -17.82502 -13.322521zm-19.800219 114.77864l0 278.74817l39.60044 0l0 -278.74817z" fill-rule="evenodd"/><path fill="#24506b" d="m193.25923 157.21735c-7.6117554 0 -15.0629425 2.6189575 -22.35353 7.8568726c-7.2584686 5.1809845 -15.368057 14.432724 -24.328735 27.755249l0 -28.438461l-39.311386 0l0 278.74817l39.311386 0l0 -111.96042c0 -29.036285 0.57810974 -47.90985 1.7343292 -56.620728c2.2160797 -16.738556 6.182541 -29.833328 11.899399 -39.284363c5.7489624 -9.50795 12.62204 -14.261932 20.619202 -14.261932c6.166504 0 11.337357 2.8751678 15.5125885 8.625488c4.2073517 5.69339 7.146057 14.005722 8.816147 24.937027c1.7022247 10.93129 2.5533142 33.050095 2.5533142 66.3564l0 122.20853l39.02234 0l0 -184.2095c0 -32.110687 -4.5766907 -56.364502 -13.730087 -72.761444c-10.887711 -19.300583 -24.136032 -28.950867 -39.744965 -28.950867z" fill-rule="evenodd"/><path fill="#009b87" d="m308.5562 65.95928l-36.325592 369.9619l39.042877 0l23.025269 -233.64693l44.191345 233.64693l35.324493 0l44.763428 -233.64693l22.596222 233.64693l38.61383 0l-35.4675 -369.9619l-38.61383 0l-49.339874 258.0428l-48.624786 -258.0428z" fill-rule="evenodd"/><path fill="#009b87" d="m562.8353 49.611546c-6.864685 0 -12.7282715 4.2755623 -17.59076 12.826687c-4.862488 8.551125 -7.293701 18.862778 -7.293701 30.934952c0 12.575188 2.4471436 23.278076 7.3413696 32.108643c4.9260864 8.774689 10.86908 13.162018 17.829102 13.162018c6.769348 0 12.585266 -4.3034973 17.447754 -12.910515c4.862488 -8.662903 7.293701 -19.114273 7.293701 -31.354126c0 -12.4075165 -2.4630127 -22.970673 -7.389038 -31.689465c-4.894287 -8.718796 -10.773743 -13.078194 -17.638428 -13.078194zm-19.592957 112.67366l0 273.636l39.185913 0l0 -273.636z" fill-rule="evenodd"/><path fill="#009b87" d="m702.8461 155.24309c-7.5320435 0 -14.905212 2.570938 -22.119507 7.712784c-7.182495 5.085968 -15.207153 14.168045 -24.074036 27.246231l0 -27.9169l-38.89984 0l0 273.636l38.89984 0l0 -109.907104c0 -28.503754 0.5720825 -47.03119 1.7161865 -55.582306c2.192871 -16.43158 6.117798 -29.28621 11.774841 -38.563904c5.6887817 -9.333588 12.489868 -14.000381 20.40332 -14.000381c6.1019287 0 11.218689 2.8224335 15.350159 8.4673c4.16333 5.588974 7.071289 13.748856 8.723877 24.47969c1.6843872 10.73082 2.5266113 32.443954 2.5266113 65.13945l0 119.967255l38.61377 0l0 -180.83115c0 -31.52179 -4.5287476 -55.33081 -13.586304 -71.42705c-10.773743 -18.94661 -23.883362 -28.419922 -39.32892 -28.419922z" fill-rule="evenodd"/><path fill="#009b87" d="m867.4554 218.62202c12.394592 0 22.64392 7.3774414 30.748047 22.132324c8.104126 14.754883 12.156189 34.03682 12.156189 57.84584c0 24.312012 -4.052063 43.9852 -12.156189 59.01953c-8.104126 14.978424 -18.305786 22.467651 -30.60498 22.467651c-11.917847 0 -21.960632 -7.628937 -30.128357 -22.88681c-8.135864 -15.257904 -12.203857 -34.70752 -12.203857 -58.348877c0 -23.473663 4.0043945 -42.699707 12.013184 -57.67816c8.008789 -15.034332 18.067444 -22.551498 30.175964 -22.551498zm41.045105 -161.96838l0 135.81198c-6.960022 -12.4075165 -14.539795 -21.71315 -22.739258 -27.9169c-8.199463 -6.203766 -16.971008 -9.305649 -26.314636 -9.305649c-20.307983 0 -37.565002 13.4973755 -51.77112 40.492096c-14.206055 26.994736 -21.309082 61.618393 -21.309082 103.87102c0 40.74359 7.3413696 74.8363 22.02417 102.27817c14.6828 27.385956 32.082825 41.07895 52.200195 41.07895c8.962158 0 17.272888 -2.7945251 24.932129 -8.383453c7.690979 -5.6448975 15.350159 -14.838745 22.9776 -27.581573l0 28.922913l38.89984 0l0 -379.26755z" fill-rule="evenodd"/><path stroke="#009b87" stroke-width="1.0" stroke-linejoin="round" stroke-linecap="butt" d="m308.5562 65.95928l-36.325592 369.9619l39.042877 0l23.025269 -233.64693l44.191345 233.64693l35.324493 0l44.763428 -233.64693l22.596222 233.64693l38.61383 0l-35.4675 -369.9619l-38.61383 0l-49.339874 258.0428l-48.624786 -258.0428z" fill-rule="evenodd"/><path stroke="#009b87" stroke-width="1.0" stroke-linejoin="round" stroke-linecap="butt" d="m562.8353 49.611546c-6.864685 0 -12.7282715 4.2755623 -17.59076 12.826687c-4.862488 8.551125 -7.293701 18.862778 -7.293701 30.934952c0 12.575188 2.4471436 23.278076 7.3413696 32.108643c4.9260864 8.774689 10.86908 13.162018 17.829102 13.162018c6.769348 0 12.585266 -4.3034973 17.447754 -12.910515c4.862488 -8.662903 7.293701 -19.114273 7.293701 -31.354126c0 -12.4075165 -2.4630127 -22.970673 -7.389038 -31.689465c-4.894287 -8.718796 -10.773743 -13.078194 -17.638428 -13.078194zm-19.592957 112.67366l0 273.636l39.185913 0l0 -273.636z" fill-rule="evenodd"/><path stroke="#009b87" stroke-width="1.0" stroke-linejoin="round" stroke-linecap="butt" d="m702.8461 155.24309c-7.5320435 0 -14.905212 2.570938 -22.119507 7.712784c-7.182495 5.085968 -15.207153 14.168045 -24.074036 27.246231l0 -27.9169l-38.89984 0l0 273.636l38.89984 0l0 -109.907104c0 -28.503754 0.5720825 -47.03119 1.7161865 -55.582306c2.192871 -16.43158 6.117798 -29.28621 11.774841 -38.563904c5.6887817 -9.333588 12.489868 -14.000381 20.40332 -14.000381c6.1019287 0 11.218689 2.8224335 15.350159 8.4673c4.16333 5.588974 7.071289 13.748856 8.723877 24.47969c1.6843872 10.73082 2.5266113 32.443954 2.5266113 65.13945l0 119.967255l38.61377 0l0 -180.83115c0 -31.52179 -4.5287476 -55.33081 -13.586304 -71.42705c-10.773743 -18.94661 -23.883362 -28.419922 -39.32892 -28.419922z" fill-rule="evenodd"/><path stroke="#009b87" stroke-width="1.0" stroke-linejoin="round" stroke-linecap="butt" d="m867.4554 218.62202c12.394592 0 22.64392 7.3774414 30.748047 22.132324c8.104126 14.754883 12.156189 34.03682 12.156189 57.84584c0 24.312012 -4.052063 43.9852 -12.156189 59.01953c-8.104126 14.978424 -18.305786 22.467651 -30.60498 22.467651c-11.917847 0 -21.960632 -7.628937 -30.128357 -22.88681c-8.135864 -15.257904 -12.203857 -34.70752 -12.203857 -58.348877c0 -23.473663 4.0043945 -42.699707 12.013184 -57.67816c8.008789 -15.034332 18.067444 -22.551498 30.175964 -22.551498zm41.045105 -161.96838l0 135.81198c-6.960022 -12.4075165 -14.539795 -21.71315 -22.739258 -27.9169c-8.199463 -6.203766 -16.971008 -9.305649 -26.314636 -9.305649c-20.307983 0 -37.565002 13.4973755 -51.77112 40.492096c-14.206055 26.994736 -21.309082 61.618393 -21.309082 103.87102c0 40.74359 7.3413696 74.8363 22.02417 102.27817c14.6828 27.385956 32.082825 41.07895 52.200195 41.07895c8.962158 0 17.272888 -2.7945251 24.932129 -8.383453c7.690979 -5.6448975 15.350159 -14.838745 22.9776 -27.581573l0 28.922913l38.89984 0l0 -379.26755z" fill-rule="evenodd"/></g></svg>