<svg version="1.1" viewBox="0.0 0.0 960.8530183727034 461.03412073490813" fill="none" stroke="none" stroke-linecap="square" stroke-miterlimit="10" xmlns:xlink="http://www.w3.org/1999/xlink" xmlns="http://www.w3.org/2000/svg"><clipPath id="p.0"><path d="m0 0l960.853 0l0 461.03412l-960.853 0l0 -461.03412z" clip-rule="nonzero"/></clipPath><g clip-path="url(#p.0)"><path fill="#000000" fill-opacity="0.0" d="m0 0l960.853 0l0 461.03412l-960.853 0z" fill-rule="evenodd"/><path fill="#f4fcff" d="m61.69459 50.70354c-6.694153 0 -12.412075 4.0288467 -17.153767 12.086536c-4.7416916 8.0576935 -7.1125374 17.774315 -7.1125374 29.14988c0 11.849548 2.3863373 21.934837 7.159027 30.255844c4.803669 8.268356 10.599068 12.402527 17.3862 12.402527c6.601177 0 12.27261 -4.055176 17.014301 -12.165535c4.7416916 -8.163017 7.1125336 -18.0113 7.1125336 -29.544868c0 -11.691551 -2.4018326 -21.645172 -7.2055054 -29.860855c-4.772682 -8.215687 -10.5061035 -12.323528 -17.200253 -12.323528zm-19.106228 106.171936l0 257.84607l38.21245 0l0 -257.84607z" fill-rule="evenodd"/><path fill="#f4fcff" d="m198.2274 150.23972c-7.3449707 0 -14.534988 2.4225922 -21.570053 7.2677307c-7.004059 4.7924805 -14.829407 13.350479 -23.476013 25.674011l0 -26.305984l-37.933533 0l0 257.84607l37.933533 0l0 -103.565c0 -26.858978 0.55784607 -44.31732 1.6735382 -52.375c2.1384125 -15.483398 5.965851 -27.596268 11.48233 -36.338608c5.54747 -8.794983 12.179642 -13.19249 19.8965 -13.19249c5.950363 0 10.939987 2.6595764 14.968872 7.9786987c4.0598755 5.266464 6.8955994 12.955505 8.507156 23.067108c1.6425476 10.111618 2.4638214 30.571838 2.4638214 61.380646l0 113.04465l37.654602 0l0 -170.39644c0 -29.702866 -4.4162903 -52.138 -13.24884 -67.30542c-10.5061035 -17.853317 -23.29007 -26.779984 -38.351913 -26.779984z" fill-rule="evenodd"/><path fill="#009b87" d="m309.48355 65.82468l-35.05243 342.22l37.67447 0l22.218292 -216.1267l42.642548 216.1267l34.086426 0l43.19455 -216.1267l21.80429 216.1267l37.260498 0l-34.224457 -342.22l-37.260498 0l-47.610596 238.69324l-46.920593 -238.69324z" fill-rule="evenodd"/><path fill="#009b87" d="m554.8507 50.702785c-6.6240845 0 -12.282166 3.954956 -16.974243 11.864868c-4.6920166 7.909916 -7.038086 17.448338 -7.038086 28.615269c0 11.632225 2.3613892 21.532547 7.0841064 29.700943c4.753418 8.1167145 10.488159 12.175064 17.204224 12.175064c6.5321045 0 12.144165 -3.9808044 16.836182 -11.942413c4.6920776 -8.013306 7.038147 -17.680977 7.038147 -29.003014c0 -11.477127 -2.376709 -21.2482 -7.130127 -29.313206c-4.7227173 -8.065006 -10.396118 -12.097511 -17.020203 -12.097511zm-18.90625 104.22472l0 253.11717l37.8125 0l0 -253.11717z" fill-rule="evenodd"/><path fill="#009b87" d="m689.9544 148.41347c-7.2680664 0 -14.3828125 2.3781433 -21.344238 7.13443c-6.930786 4.70459 -14.674194 13.105637 -23.230286 25.20314l0 -25.823532l-37.5365 0l0 253.11717l37.5365 0l0 -101.66562c0 -26.366364 0.55200195 -43.504517 1.6560059 -51.41443c2.1160278 -15.199432 5.9033813 -27.090149 11.362122 -35.67215c5.489441 -8.6336975 12.052185 -12.950546 19.688293 -12.950546c5.8880615 0 10.825439 2.610794 14.812134 7.832367c4.017395 5.169876 6.8234253 12.7178955 8.418152 22.644058c1.6253662 9.926163 2.4379883 30.011139 2.4379883 60.254913l0 110.971405l37.260498 0l0 -167.27136c0 -29.158112 -4.370056 -51.181778 -13.110168 -66.07103c-10.396118 -17.525879 -23.046265 -26.288818 -37.9505 -26.288818z" fill-rule="evenodd"/><path fill="#009b87" d="m848.79443 207.03987c11.960205 0 21.85028 6.824234 29.67041 20.472717c7.8201294 13.648468 11.730164 31.484543 11.730164 53.508224c0 22.488953 -3.9100342 40.68692 -11.730164 54.593903c-7.8201294 13.855255 -17.664246 20.782898 -29.532349 20.782898c-11.500183 0 -21.190979 -7.056885 -29.072388 -21.170654c-7.850769 -14.113739 -11.776184 -32.10492 -11.776184 -53.97351c0 -21.71347 3.8640747 -39.49785 11.592163 -53.35312c7.7280884 -13.906967 17.434204 -20.860458 29.118347 -20.860458zm39.606506 -149.82304l0 125.62802c-6.7160645 -11.477127 -14.030151 -20.084976 -21.94226 -25.823532c-7.9121094 -5.738571 -16.37622 -8.607849 -25.392334 -8.607849c-19.596252 0 -36.248474 12.485245 -49.956604 37.45575c-13.708191 24.97052 -20.562256 56.997894 -20.562256 96.08217c0 37.688416 7.0840454 69.22464 21.252258 94.608765c14.168152 25.332367 30.958374 37.998596 50.370605 37.998596c8.648132 0 16.667603 -2.584961 24.05835 -7.754822c7.4214478 -5.221588 14.812195 -13.726013 22.172241 -25.513336l0 26.75409l37.5365 0l0 -350.82785z" fill-rule="evenodd"/><path stroke="#009b87" stroke-width="1.0" stroke-linejoin="round" stroke-linecap="butt" d="m309.48355 65.82468l-35.05243 342.22l37.67447 0l22.218292 -216.1267l42.642548 216.1267l34.086426 0l43.19455 -216.1267l21.80429 216.1267l37.260498 0l-34.224457 -342.22l-37.260498 0l-47.610596 238.69324l-46.920593 -238.69324z" fill-rule="evenodd"/><path stroke="#009b87" stroke-width="1.0" stroke-linejoin="round" stroke-linecap="butt" d="m554.8507 50.702785c-6.6240845 0 -12.282166 3.954956 -16.974243 11.864868c-4.6920166 7.909916 -7.038086 17.448338 -7.038086 28.615269c0 11.632225 2.3613892 21.532547 7.0841064 29.700943c4.753418 8.1167145 10.488159 12.175064 17.204224 12.175064c6.5321045 0 12.144165 -3.9808044 16.836182 -11.942413c4.6920776 -8.013306 7.038147 -17.680977 7.038147 -29.003014c0 -11.477127 -2.376709 -21.2482 -7.130127 -29.313206c-4.7227173 -8.065006 -10.396118 -12.097511 -17.020203 -12.097511zm-18.90625 104.22472l0 253.11717l37.8125 0l0 -253.11717z" fill-rule="evenodd"/><path stroke="#009b87" stroke-width="1.0" stroke-linejoin="round" stroke-linecap="butt" d="m689.9544 148.41347c-7.2680664 0 -14.3828125 2.3781433 -21.344238 7.13443c-6.930786 4.70459 -14.674194 13.105637 -23.230286 25.20314l0 -25.823532l-37.5365 0l0 253.11717l37.5365 0l0 -101.66562c0 -26.366364 0.55200195 -43.504517 1.6560059 -51.41443c2.1160278 -15.199432 5.9033813 -27.090149 11.362122 -35.67215c5.489441 -8.6336975 12.052185 -12.950546 19.688293 -12.950546c5.8880615 0 10.825439 2.610794 14.812134 7.832367c4.017395 5.169876 6.8234253 12.7178955 8.418152 22.644058c1.6253662 9.926163 2.4379883 30.011139 2.4379883 60.254913l0 110.971405l37.260498 0l0 -167.27136c0 -29.158112 -4.370056 -51.181778 -13.110168 -66.07103c-10.396118 -17.525879 -23.046265 -26.288818 -37.9505 -26.288818z" fill-rule="evenodd"/><path stroke="#009b87" stroke-width="1.0" stroke-linejoin="round" stroke-linecap="butt" d="m848.79443 207.03987c11.960205 0 21.85028 6.824234 29.67041 20.472717c7.8201294 13.648468 11.730164 31.484543 11.730164 53.508224c0 22.488953 -3.9100342 40.68692 -11.730164 54.593903c-7.8201294 13.855255 -17.664246 20.782898 -29.532349 20.782898c-11.500183 0 -21.190979 -7.056885 -29.072388 -21.170654c-7.850769 -14.113739 -11.776184 -32.10492 -11.776184 -53.97351c0 -21.71347 3.8640747 -39.49785 11.592163 -53.35312c7.7280884 -13.906967 17.434204 -20.860458 29.118347 -20.860458zm39.606506 -149.82304l0 125.62802c-6.7160645 -11.477127 -14.030151 -20.084976 -21.94226 -25.823532c-7.9121094 -5.738571 -16.37622 -8.607849 -25.392334 -8.607849c-19.596252 0 -36.248474 12.485245 -49.956604 37.45575c-13.708191 24.97052 -20.562256 56.997894 -20.562256 96.08217c0 37.688416 7.0840454 69.22464 21.252258 94.608765c14.168152 25.332367 30.958374 37.998596 50.370605 37.998596c8.648132 0 16.667603 -2.584961 24.05835 -7.754822c7.4214478 -5.221588 14.812195 -13.726013 22.172241 -25.513336l0 26.75409l37.5365 0l0 -350.82785z" fill-rule="evenodd"/></g></svg>